<svg width="64" height="64" viewBox="0 0 64 64" fill="none" xmlns="http://www.w3.org/2000/svg">
  <path d="M14 18c0-4.4 3.6-8 8-8h22c4.4 0 8 3.6 8 8v14c0 4.4-3.6 8-8 8H28l-10 8v-8h-2c-1.1 0-2-.9-2-2V18Z" fill="#FFF7ED" stroke="#F97316" stroke-width="3" stroke-linejoin="round"/>
  <circle cx="26" cy="26" r="3" fill="#F97316"/>
  <circle cx="34" cy="26" r="3" fill="#FB923C"/>
  <circle cx="42" cy="26" r="3" fill="#2563EB"/>
  <path d="M30 42c0 6.6-5.4 12-12 12-1.9 0-3.7-.4-5.3-1.2l-4.7 2.2 1.5-4.9A11.9 11.9 0 0 1 6 42c0-6.6 5.4-12 12-12s12 5.4 12 12Z" fill="#FFFFFF" stroke="#9A3412" stroke-width="3" stroke-linejoin="round"/>
  <path d="M14 40c1.6-1.3 4.4-1.3 6 0" stroke="#9A3412" stroke-width="3" stroke-linecap="round"/>
</svg>

