<svg width="64" height="64" viewBox="0 0 64 64" fill="none" xmlns="http://www.w3.org/2000/svg">
  <path d="M20 30c0 4-2.7 7-6 7s-6-3-6-7 2.7-7 6-7 6 3 6 7Z" fill="#F97316"/>
  <path d="M56 30c0 4-2.7 7-6 7s-6-3-6-7 2.7-7 6-7 6 3 6 7Z" fill="#F97316"/>
  <path d="M34 22c0 4-2.7 7-6 7s-6-3-6-7 2.7-7 6-7 6 3 6 7Z" fill="#FB923C"/>
  <path d="M44 22c0 4-2.7 7-6 7s-6-3-6-7 2.7-7 6-7 6 3 6 7Z" fill="#FB923C"/>
  <path d="M32 34c-8.4 0-16 6.3-16 14.2 0 6.3 6.2 10.8 16 10.8s16-4.5 16-10.8C48 40.3 40.4 34 32 34Z" fill="#9A3412"/>
  <path d="M32 36c-7.3 0-14 5.4-14 12.2 0 5.1 5.6 8.8 14 8.8s14-3.7 14-8.8C46 41.4 39.3 36 32 36Z" stroke="#FFF7ED" stroke-width="2" opacity="0.7"/>
</svg>

